<mxfile host="app.diagrams.net" modified="2024-06-02T12:35:55.874Z" agent="Mozilla/5.0 (Windows NT 10.0; Win64; x64; rv:126.0) Gecko/20100101 Firefox/126.0" etag="jdUHMP_ap_BdUgkJ55gX" version="24.4.13" type="device">
  <diagram name="Page-1" id="13e1069c-82ec-6db2-03f1-153e76fe0fe0">
    <mxGraphModel dx="1238" dy="1700" grid="1" gridSize="10" guides="1" tooltips="1" connect="1" arrows="1" fold="1" page="1" pageScale="1" pageWidth="1100" pageHeight="850" background="none" math="0" shadow="0">
      <root>
        <mxCell id="0" />
        <mxCell id="1" parent="0" />
        <mxCell id="U2vt6CoMSIiraqyLDLpo-1" value="index.html" style="rounded=0;whiteSpace=wrap;html=1;fillColor=#f8cecc;strokeColor=#b85450;" vertex="1" parent="1">
          <mxGeometry x="160" y="40" width="120" height="60" as="geometry" />
        </mxCell>
        <mxCell id="U2vt6CoMSIiraqyLDLpo-2" value="Components" style="rounded=0;whiteSpace=wrap;html=1;fillColor=#f8cecc;strokeColor=#b85450;" vertex="1" parent="1">
          <mxGeometry x="320" y="40" width="120" height="60" as="geometry" />
        </mxCell>
        <mxCell id="U2vt6CoMSIiraqyLDLpo-3" value="Services" style="rounded=0;whiteSpace=wrap;html=1;fillColor=#f8cecc;strokeColor=#b85450;" vertex="1" parent="1">
          <mxGeometry x="480" y="40" width="120" height="60" as="geometry" />
        </mxCell>
        <mxCell id="U2vt6CoMSIiraqyLDLpo-4" value="API" style="rounded=0;whiteSpace=wrap;html=1;fillColor=#d5e8d4;strokeColor=#82b366;" vertex="1" parent="1">
          <mxGeometry x="640" y="40" width="120" height="60" as="geometry" />
        </mxCell>
        <mxCell id="U2vt6CoMSIiraqyLDLpo-5" value="Database" style="rounded=0;whiteSpace=wrap;html=1;fillColor=#f5f5f5;fontColor=#333333;strokeColor=#666666;" vertex="1" parent="1">
          <mxGeometry x="800" y="40" width="120" height="60" as="geometry" />
        </mxCell>
        <mxCell id="U2vt6CoMSIiraqyLDLpo-7" value="" style="shape=umlActor;verticalLabelPosition=bottom;verticalAlign=top;html=1;outlineConnect=0;fillColor=#fff2cc;strokeColor=#d6b656;" vertex="1" parent="1">
          <mxGeometry x="70" y="40" width="30" height="60" as="geometry" />
        </mxCell>
        <mxCell id="U2vt6CoMSIiraqyLDLpo-8" value="" style="endArrow=none;dashed=1;html=1;rounded=0;entryX=0.5;entryY=1;entryDx=0;entryDy=0;" edge="1" parent="1" source="U2vt6CoMSIiraqyLDLpo-26" target="U2vt6CoMSIiraqyLDLpo-2">
          <mxGeometry width="50" height="50" relative="1" as="geometry">
            <mxPoint x="380" y="820" as="sourcePoint" />
            <mxPoint x="450" y="320" as="targetPoint" />
          </mxGeometry>
        </mxCell>
        <mxCell id="U2vt6CoMSIiraqyLDLpo-9" value="" style="endArrow=none;dashed=1;html=1;rounded=0;entryX=0.5;entryY=1;entryDx=0;entryDy=0;" edge="1" parent="1" source="U2vt6CoMSIiraqyLDLpo-20" target="U2vt6CoMSIiraqyLDLpo-1">
          <mxGeometry width="50" height="50" relative="1" as="geometry">
            <mxPoint x="219.5" y="830" as="sourcePoint" />
            <mxPoint x="219.5" y="110" as="targetPoint" />
          </mxGeometry>
        </mxCell>
        <mxCell id="U2vt6CoMSIiraqyLDLpo-10" value="" style="endArrow=none;dashed=1;html=1;rounded=0;entryX=0.5;entryY=1;entryDx=0;entryDy=0;" edge="1" parent="1" source="U2vt6CoMSIiraqyLDLpo-23" target="U2vt6CoMSIiraqyLDLpo-3">
          <mxGeometry width="50" height="50" relative="1" as="geometry">
            <mxPoint x="540" y="830" as="sourcePoint" />
            <mxPoint x="400" y="120" as="targetPoint" />
          </mxGeometry>
        </mxCell>
        <mxCell id="U2vt6CoMSIiraqyLDLpo-11" value="" style="endArrow=none;dashed=1;html=1;rounded=0;entryX=0.5;entryY=1;entryDx=0;entryDy=0;" edge="1" parent="1" target="U2vt6CoMSIiraqyLDLpo-4">
          <mxGeometry width="50" height="50" relative="1" as="geometry">
            <mxPoint x="700" y="830" as="sourcePoint" />
            <mxPoint x="550" y="110" as="targetPoint" />
          </mxGeometry>
        </mxCell>
        <mxCell id="U2vt6CoMSIiraqyLDLpo-12" value="" style="endArrow=none;dashed=1;html=1;rounded=0;entryX=0.5;entryY=1;entryDx=0;entryDy=0;" edge="1" parent="1" source="U2vt6CoMSIiraqyLDLpo-35" target="U2vt6CoMSIiraqyLDLpo-5">
          <mxGeometry width="50" height="50" relative="1" as="geometry">
            <mxPoint x="860" y="830" as="sourcePoint" />
            <mxPoint x="560" y="120" as="targetPoint" />
          </mxGeometry>
        </mxCell>
        <mxCell id="U2vt6CoMSIiraqyLDLpo-13" value="" style="endArrow=none;dashed=1;html=1;rounded=0;" edge="1" parent="1" source="U2vt6CoMSIiraqyLDLpo-14" target="U2vt6CoMSIiraqyLDLpo-7">
          <mxGeometry width="50" height="50" relative="1" as="geometry">
            <mxPoint x="85" y="820" as="sourcePoint" />
            <mxPoint x="90" y="170" as="targetPoint" />
          </mxGeometry>
        </mxCell>
        <mxCell id="U2vt6CoMSIiraqyLDLpo-15" value="" style="endArrow=none;dashed=1;html=1;rounded=0;" edge="1" parent="1" target="U2vt6CoMSIiraqyLDLpo-14">
          <mxGeometry width="50" height="50" relative="1" as="geometry">
            <mxPoint x="85" y="1080" as="sourcePoint" />
            <mxPoint x="85" y="100" as="targetPoint" />
          </mxGeometry>
        </mxCell>
        <mxCell id="U2vt6CoMSIiraqyLDLpo-14" value="" style="html=1;points=[[0,0,0,0,5],[0,1,0,0,-5],[1,0,0,0,5],[1,1,0,0,-5]];perimeter=orthogonalPerimeter;outlineConnect=0;targetShapes=umlLifeline;portConstraint=eastwest;newEdgeStyle={&quot;curved&quot;:0,&quot;rounded&quot;:0};fillColor=#fff2cc;strokeColor=#d6b656;" vertex="1" parent="1">
          <mxGeometry x="80" y="130" width="10" height="910" as="geometry" />
        </mxCell>
        <mxCell id="U2vt6CoMSIiraqyLDLpo-19" value="Click &#39;check out&#39;" style="text;html=1;align=center;verticalAlign=middle;whiteSpace=wrap;rounded=0;" vertex="1" parent="1">
          <mxGeometry x="120" y="130" width="60" height="30" as="geometry" />
        </mxCell>
        <mxCell id="U2vt6CoMSIiraqyLDLpo-21" value="" style="endArrow=none;dashed=1;html=1;rounded=0;entryX=0.5;entryY=1;entryDx=0;entryDy=0;" edge="1" parent="1" target="U2vt6CoMSIiraqyLDLpo-20">
          <mxGeometry width="50" height="50" relative="1" as="geometry">
            <mxPoint x="220" y="1080" as="sourcePoint" />
            <mxPoint x="220" y="100" as="targetPoint" />
          </mxGeometry>
        </mxCell>
        <mxCell id="U2vt6CoMSIiraqyLDLpo-20" value="" style="html=1;points=[[0,0,0,0,5],[0,1,0,0,-5],[1,0,0,0,5],[1,1,0,0,-5]];perimeter=orthogonalPerimeter;outlineConnect=0;targetShapes=umlLifeline;portConstraint=eastwest;newEdgeStyle={&quot;curved&quot;:0,&quot;rounded&quot;:0};fillColor=#f8cecc;strokeColor=#b85450;" vertex="1" parent="1">
          <mxGeometry x="215" y="150" width="10" height="890" as="geometry" />
        </mxCell>
        <mxCell id="U2vt6CoMSIiraqyLDLpo-18" value="" style="endArrow=classic;html=1;rounded=0;" edge="1" parent="1">
          <mxGeometry width="50" height="50" relative="1" as="geometry">
            <mxPoint x="90" y="160" as="sourcePoint" />
            <mxPoint x="215.0000000000001" y="160" as="targetPoint" />
          </mxGeometry>
        </mxCell>
        <mxCell id="U2vt6CoMSIiraqyLDLpo-22" value="" style="endArrow=classic;html=1;rounded=0;" edge="1" parent="1" target="U2vt6CoMSIiraqyLDLpo-26">
          <mxGeometry width="50" height="50" relative="1" as="geometry">
            <mxPoint x="225" y="180" as="sourcePoint" />
            <mxPoint x="330" y="190" as="targetPoint" />
          </mxGeometry>
        </mxCell>
        <mxCell id="U2vt6CoMSIiraqyLDLpo-24" value="" style="endArrow=none;dashed=1;html=1;rounded=0;entryX=0.5;entryY=1;entryDx=0;entryDy=0;" edge="1" parent="1" target="U2vt6CoMSIiraqyLDLpo-23">
          <mxGeometry width="50" height="50" relative="1" as="geometry">
            <mxPoint x="540" y="830" as="sourcePoint" />
            <mxPoint x="540" y="100" as="targetPoint" />
          </mxGeometry>
        </mxCell>
        <mxCell id="U2vt6CoMSIiraqyLDLpo-23" value="" style="html=1;points=[[0,0,0,0,5],[0,1,0,0,-5],[1,0,0,0,5],[1,1,0,0,-5]];perimeter=orthogonalPerimeter;outlineConnect=0;targetShapes=umlLifeline;portConstraint=eastwest;newEdgeStyle={&quot;curved&quot;:0,&quot;rounded&quot;:0};fillColor=#f8cecc;strokeColor=#b85450;" vertex="1" parent="1">
          <mxGeometry x="535" y="170" width="10" height="500" as="geometry" />
        </mxCell>
        <mxCell id="U2vt6CoMSIiraqyLDLpo-25" value="Get contents of shopping cart" style="text;html=1;align=center;verticalAlign=middle;whiteSpace=wrap;rounded=0;" vertex="1" parent="1">
          <mxGeometry x="240" y="145" width="120" height="30" as="geometry" />
        </mxCell>
        <mxCell id="U2vt6CoMSIiraqyLDLpo-27" value="" style="endArrow=none;dashed=1;html=1;rounded=0;entryX=0.5;entryY=1;entryDx=0;entryDy=0;" edge="1" parent="1" target="U2vt6CoMSIiraqyLDLpo-26">
          <mxGeometry width="50" height="50" relative="1" as="geometry">
            <mxPoint x="380" y="1080" as="sourcePoint" />
            <mxPoint x="380" y="100" as="targetPoint" />
          </mxGeometry>
        </mxCell>
        <mxCell id="U2vt6CoMSIiraqyLDLpo-26" value="" style="html=1;points=[[0,0,0,0,5],[0,1,0,0,-5],[1,0,0,0,5],[1,1,0,0,-5]];perimeter=orthogonalPerimeter;outlineConnect=0;targetShapes=umlLifeline;portConstraint=eastwest;newEdgeStyle={&quot;curved&quot;:0,&quot;rounded&quot;:0};fillColor=#f8cecc;strokeColor=#b85450;" vertex="1" parent="1">
          <mxGeometry x="375" y="170" width="10" height="870" as="geometry" />
        </mxCell>
        <mxCell id="U2vt6CoMSIiraqyLDLpo-30" value="" style="html=1;points=[[0,0,0,0,5],[0,1,0,0,-5],[1,0,0,0,5],[1,1,0,0,-5]];perimeter=orthogonalPerimeter;outlineConnect=0;targetShapes=umlLifeline;portConstraint=eastwest;newEdgeStyle={&quot;curved&quot;:0,&quot;rounded&quot;:0};fillColor=#d5e8d4;strokeColor=#82b366;" vertex="1" parent="1">
          <mxGeometry x="695" y="350" width="10" height="310" as="geometry" />
        </mxCell>
        <mxCell id="U2vt6CoMSIiraqyLDLpo-36" value="" style="endArrow=none;dashed=1;html=1;rounded=0;entryX=0.5;entryY=1;entryDx=0;entryDy=0;" edge="1" parent="1" target="U2vt6CoMSIiraqyLDLpo-35">
          <mxGeometry width="50" height="50" relative="1" as="geometry">
            <mxPoint x="860" y="830" as="sourcePoint" />
            <mxPoint x="860" y="100" as="targetPoint" />
          </mxGeometry>
        </mxCell>
        <mxCell id="U2vt6CoMSIiraqyLDLpo-35" value="" style="html=1;points=[[0,0,0,0,5],[0,1,0,0,-5],[1,0,0,0,5],[1,1,0,0,-5]];perimeter=orthogonalPerimeter;outlineConnect=0;targetShapes=umlLifeline;portConstraint=eastwest;newEdgeStyle={&quot;curved&quot;:0,&quot;rounded&quot;:0};fillColor=#f5f5f5;strokeColor=#666666;fontColor=#333333;" vertex="1" parent="1">
          <mxGeometry x="855" y="370" width="10" height="290" as="geometry" />
        </mxCell>
        <mxCell id="U2vt6CoMSIiraqyLDLpo-41" value="" style="endArrow=classic;html=1;rounded=0;" edge="1" parent="1">
          <mxGeometry width="50" height="50" relative="1" as="geometry">
            <mxPoint x="385" y="190" as="sourcePoint" />
            <mxPoint x="535" y="190" as="targetPoint" />
          </mxGeometry>
        </mxCell>
        <mxCell id="U2vt6CoMSIiraqyLDLpo-42" value="Send request" style="text;html=1;align=center;verticalAlign=middle;whiteSpace=wrap;rounded=0;" vertex="1" parent="1">
          <mxGeometry x="410" y="160" width="90" height="30" as="geometry" />
        </mxCell>
        <mxCell id="U2vt6CoMSIiraqyLDLpo-49" value="return shopping cart" style="html=1;verticalAlign=bottom;endArrow=open;dashed=1;endSize=8;curved=0;rounded=0;" edge="1" parent="1">
          <mxGeometry relative="1" as="geometry">
            <mxPoint x="535" y="215" as="sourcePoint" />
            <mxPoint x="385" y="215" as="targetPoint" />
          </mxGeometry>
        </mxCell>
        <mxCell id="U2vt6CoMSIiraqyLDLpo-50" value="display shopping cart" style="html=1;verticalAlign=bottom;endArrow=open;dashed=1;endSize=8;curved=0;rounded=0;" edge="1" parent="1">
          <mxGeometry relative="1" as="geometry">
            <mxPoint x="375" y="225" as="sourcePoint" />
            <mxPoint x="225" y="225" as="targetPoint" />
          </mxGeometry>
        </mxCell>
        <mxCell id="U2vt6CoMSIiraqyLDLpo-51" value="Validate contents and continue" style="text;html=1;align=center;verticalAlign=middle;whiteSpace=wrap;rounded=0;" vertex="1" parent="1">
          <mxGeometry x="117.5" y="270" width="60" height="30" as="geometry" />
        </mxCell>
        <mxCell id="U2vt6CoMSIiraqyLDLpo-52" value="" style="endArrow=classic;html=1;rounded=0;" edge="1" parent="1">
          <mxGeometry width="50" height="50" relative="1" as="geometry">
            <mxPoint x="90" y="314.74" as="sourcePoint" />
            <mxPoint x="215.0000000000001" y="314.74" as="targetPoint" />
          </mxGeometry>
        </mxCell>
        <mxCell id="U2vt6CoMSIiraqyLDLpo-53" value="&lt;font style=&quot;font-size: 9px;&quot;&gt;Correct shopping cart&lt;br&gt;&lt;/font&gt;" style="shape=umlFrame;whiteSpace=wrap;html=1;pointerEvents=0;" vertex="1" parent="1">
          <mxGeometry y="240" width="920" height="550" as="geometry" />
        </mxCell>
        <mxCell id="U2vt6CoMSIiraqyLDLpo-54" value="&lt;font style=&quot;font-size: 9px;&quot;&gt;Incorrect shopping cart&lt;br&gt;&lt;/font&gt;" style="shape=umlFrame;whiteSpace=wrap;html=1;pointerEvents=0;" vertex="1" parent="1">
          <mxGeometry y="890" width="470" height="130" as="geometry" />
        </mxCell>
        <mxCell id="U2vt6CoMSIiraqyLDLpo-55" value="" style="endArrow=classic;html=1;rounded=0;" edge="1" parent="1">
          <mxGeometry width="50" height="50" relative="1" as="geometry">
            <mxPoint x="225" y="329.63" as="sourcePoint" />
            <mxPoint x="375" y="329.63" as="targetPoint" />
          </mxGeometry>
        </mxCell>
        <mxCell id="U2vt6CoMSIiraqyLDLpo-56" value="Send confirmation" style="text;html=1;align=center;verticalAlign=middle;whiteSpace=wrap;rounded=0;" vertex="1" parent="1">
          <mxGeometry x="240" y="300" width="120" height="30" as="geometry" />
        </mxCell>
        <mxCell id="U2vt6CoMSIiraqyLDLpo-57" value="Relay confirmation" style="text;html=1;align=center;verticalAlign=middle;whiteSpace=wrap;rounded=0;" vertex="1" parent="1">
          <mxGeometry x="400" y="315" width="120" height="30" as="geometry" />
        </mxCell>
        <mxCell id="U2vt6CoMSIiraqyLDLpo-58" value="" style="endArrow=classic;html=1;rounded=0;" edge="1" parent="1">
          <mxGeometry width="50" height="50" relative="1" as="geometry">
            <mxPoint x="385" y="350" as="sourcePoint" />
            <mxPoint x="535" y="350" as="targetPoint" />
          </mxGeometry>
        </mxCell>
        <mxCell id="U2vt6CoMSIiraqyLDLpo-59" value="" style="endArrow=classic;html=1;rounded=0;" edge="1" parent="1">
          <mxGeometry width="50" height="50" relative="1" as="geometry">
            <mxPoint x="545" y="370" as="sourcePoint" />
            <mxPoint x="695" y="370" as="targetPoint" />
          </mxGeometry>
        </mxCell>
        <mxCell id="U2vt6CoMSIiraqyLDLpo-60" value="Retrieve user information" style="text;html=1;align=center;verticalAlign=middle;whiteSpace=wrap;rounded=0;" vertex="1" parent="1">
          <mxGeometry x="560" y="340" width="120" height="30" as="geometry" />
        </mxCell>
        <mxCell id="U2vt6CoMSIiraqyLDLpo-62" value="" style="endArrow=classic;html=1;rounded=0;" edge="1" parent="1">
          <mxGeometry width="50" height="50" relative="1" as="geometry">
            <mxPoint x="705" y="390" as="sourcePoint" />
            <mxPoint x="855" y="390" as="targetPoint" />
          </mxGeometry>
        </mxCell>
        <mxCell id="U2vt6CoMSIiraqyLDLpo-63" value="Send user info query" style="text;html=1;align=center;verticalAlign=middle;whiteSpace=wrap;rounded=0;" vertex="1" parent="1">
          <mxGeometry x="720" y="360" width="120" height="30" as="geometry" />
        </mxCell>
        <mxCell id="U2vt6CoMSIiraqyLDLpo-64" value="return user information" style="html=1;verticalAlign=bottom;endArrow=open;dashed=1;endSize=8;curved=0;rounded=0;" edge="1" parent="1">
          <mxGeometry relative="1" as="geometry">
            <mxPoint x="855" y="420" as="sourcePoint" />
            <mxPoint x="705" y="420" as="targetPoint" />
          </mxGeometry>
        </mxCell>
        <mxCell id="U2vt6CoMSIiraqyLDLpo-65" value="return user information" style="html=1;verticalAlign=bottom;endArrow=open;dashed=1;endSize=8;curved=0;rounded=0;" edge="1" parent="1">
          <mxGeometry relative="1" as="geometry">
            <mxPoint x="695" y="430" as="sourcePoint" />
            <mxPoint x="545" y="430" as="targetPoint" />
          </mxGeometry>
        </mxCell>
        <mxCell id="U2vt6CoMSIiraqyLDLpo-66" value="return user information" style="html=1;verticalAlign=bottom;endArrow=open;dashed=1;endSize=8;curved=0;rounded=0;" edge="1" parent="1">
          <mxGeometry relative="1" as="geometry">
            <mxPoint x="535" y="450" as="sourcePoint" />
            <mxPoint x="385" y="450" as="targetPoint" />
          </mxGeometry>
        </mxCell>
        <mxCell id="U2vt6CoMSIiraqyLDLpo-67" value="display user information" style="html=1;verticalAlign=bottom;endArrow=open;dashed=1;endSize=8;curved=0;rounded=0;" edge="1" parent="1">
          <mxGeometry relative="1" as="geometry">
            <mxPoint x="375" y="470" as="sourcePoint" />
            <mxPoint x="225" y="470" as="targetPoint" />
          </mxGeometry>
        </mxCell>
        <mxCell id="U2vt6CoMSIiraqyLDLpo-68" value="" style="endArrow=classic;html=1;rounded=0;" edge="1" parent="1">
          <mxGeometry width="50" height="50" relative="1" as="geometry">
            <mxPoint x="90" y="500" as="sourcePoint" />
            <mxPoint x="215.0000000000001" y="500" as="targetPoint" />
          </mxGeometry>
        </mxCell>
        <mxCell id="U2vt6CoMSIiraqyLDLpo-69" value="Validate information and input payment information" style="text;html=1;align=center;verticalAlign=middle;whiteSpace=wrap;rounded=0;" vertex="1" parent="1">
          <mxGeometry x="120" y="450" width="60" height="30" as="geometry" />
        </mxCell>
        <mxCell id="U2vt6CoMSIiraqyLDLpo-71" value="" style="endArrow=classic;html=1;rounded=0;" edge="1" parent="1">
          <mxGeometry width="50" height="50" relative="1" as="geometry">
            <mxPoint x="225" y="530" as="sourcePoint" />
            <mxPoint x="375" y="530" as="targetPoint" />
          </mxGeometry>
        </mxCell>
        <mxCell id="U2vt6CoMSIiraqyLDLpo-72" value="" style="endArrow=classic;html=1;rounded=0;" edge="1" parent="1">
          <mxGeometry width="50" height="50" relative="1" as="geometry">
            <mxPoint x="385" y="550" as="sourcePoint" />
            <mxPoint x="535" y="550" as="targetPoint" />
          </mxGeometry>
        </mxCell>
        <mxCell id="U2vt6CoMSIiraqyLDLpo-73" value="" style="endArrow=classic;html=1;rounded=0;" edge="1" parent="1">
          <mxGeometry width="50" height="50" relative="1" as="geometry">
            <mxPoint x="545" y="580" as="sourcePoint" />
            <mxPoint x="695" y="580" as="targetPoint" />
          </mxGeometry>
        </mxCell>
        <mxCell id="U2vt6CoMSIiraqyLDLpo-74" value="" style="endArrow=classic;html=1;rounded=0;" edge="1" parent="1">
          <mxGeometry width="50" height="50" relative="1" as="geometry">
            <mxPoint x="705" y="600" as="sourcePoint" />
            <mxPoint x="855" y="600" as="targetPoint" />
          </mxGeometry>
        </mxCell>
        <mxCell id="U2vt6CoMSIiraqyLDLpo-77" value="Save payment information" style="text;html=1;align=center;verticalAlign=middle;whiteSpace=wrap;rounded=0;" vertex="1" parent="1">
          <mxGeometry x="240" y="500" width="120" height="30" as="geometry" />
        </mxCell>
        <mxCell id="U2vt6CoMSIiraqyLDLpo-79" value="Relay payment information" style="text;html=1;align=center;verticalAlign=middle;whiteSpace=wrap;rounded=0;" vertex="1" parent="1">
          <mxGeometry x="400" y="520" width="120" height="30" as="geometry" />
        </mxCell>
        <mxCell id="U2vt6CoMSIiraqyLDLpo-80" value="Relay payment information" style="text;html=1;align=center;verticalAlign=middle;whiteSpace=wrap;rounded=0;" vertex="1" parent="1">
          <mxGeometry x="560" y="550" width="120" height="30" as="geometry" />
        </mxCell>
        <mxCell id="U2vt6CoMSIiraqyLDLpo-81" value="Send payment information query" style="text;html=1;align=center;verticalAlign=middle;whiteSpace=wrap;rounded=0;" vertex="1" parent="1">
          <mxGeometry x="720" y="570" width="120" height="30" as="geometry" />
        </mxCell>
        <mxCell id="U2vt6CoMSIiraqyLDLpo-82" value="&lt;div&gt;report payment&amp;nbsp;&lt;/div&gt;&lt;div&gt;&#39;information reception&lt;/div&gt;" style="html=1;verticalAlign=bottom;endArrow=open;dashed=1;endSize=8;curved=0;rounded=0;" edge="1" parent="1">
          <mxGeometry relative="1" as="geometry">
            <mxPoint x="855" y="638.75" as="sourcePoint" />
            <mxPoint x="705" y="638.75" as="targetPoint" />
          </mxGeometry>
        </mxCell>
        <mxCell id="U2vt6CoMSIiraqyLDLpo-83" value="&lt;div&gt;relay successful payment &lt;br&gt;&lt;/div&gt;&lt;div&gt;information reception&lt;br&gt;&lt;/div&gt;" style="html=1;verticalAlign=bottom;endArrow=open;dashed=1;endSize=8;curved=0;rounded=0;" edge="1" parent="1">
          <mxGeometry relative="1" as="geometry">
            <mxPoint x="700" y="650" as="sourcePoint" />
            <mxPoint x="550" y="650" as="targetPoint" />
          </mxGeometry>
        </mxCell>
        <mxCell id="U2vt6CoMSIiraqyLDLpo-84" value="return success" style="html=1;verticalAlign=bottom;endArrow=open;dashed=1;endSize=8;curved=0;rounded=0;" edge="1" parent="1">
          <mxGeometry relative="1" as="geometry">
            <mxPoint x="535" y="660" as="sourcePoint" />
            <mxPoint x="385" y="660" as="targetPoint" />
          </mxGeometry>
        </mxCell>
        <mxCell id="U2vt6CoMSIiraqyLDLpo-85" value="display order information" style="html=1;verticalAlign=bottom;endArrow=open;dashed=1;endSize=8;curved=0;rounded=0;" edge="1" parent="1">
          <mxGeometry relative="1" as="geometry">
            <mxPoint x="375" y="680" as="sourcePoint" />
            <mxPoint x="225" y="680" as="targetPoint" />
          </mxGeometry>
        </mxCell>
        <mxCell id="U2vt6CoMSIiraqyLDLpo-86" value="" style="endArrow=classic;html=1;rounded=0;" edge="1" parent="1">
          <mxGeometry width="50" height="50" relative="1" as="geometry">
            <mxPoint x="90" y="940" as="sourcePoint" />
            <mxPoint x="215.0000000000001" y="940" as="targetPoint" />
          </mxGeometry>
        </mxCell>
        <mxCell id="U2vt6CoMSIiraqyLDLpo-87" value="Correct shopping cart" style="text;html=1;align=center;verticalAlign=middle;whiteSpace=wrap;rounded=0;" vertex="1" parent="1">
          <mxGeometry x="103.75" y="910" width="92.5" height="30" as="geometry" />
        </mxCell>
        <mxCell id="U2vt6CoMSIiraqyLDLpo-89" value="" style="endArrow=classic;html=1;rounded=0;" edge="1" parent="1" target="U2vt6CoMSIiraqyLDLpo-26">
          <mxGeometry width="50" height="50" relative="1" as="geometry">
            <mxPoint x="225" y="960" as="sourcePoint" />
            <mxPoint x="350" y="960" as="targetPoint" />
          </mxGeometry>
        </mxCell>
        <mxCell id="U2vt6CoMSIiraqyLDLpo-90" value="Send updated shopping cart" style="text;html=1;align=center;verticalAlign=middle;whiteSpace=wrap;rounded=0;" vertex="1" parent="1">
          <mxGeometry x="260" y="930" width="92.5" height="30" as="geometry" />
        </mxCell>
        <mxCell id="U2vt6CoMSIiraqyLDLpo-92" value="display updated shopping cart" style="html=1;verticalAlign=bottom;endArrow=open;dashed=1;endSize=8;curved=0;rounded=0;" edge="1" parent="1">
          <mxGeometry relative="1" as="geometry">
            <mxPoint x="375" y="989.38" as="sourcePoint" />
            <mxPoint x="225" y="989.38" as="targetPoint" />
          </mxGeometry>
        </mxCell>
        <mxCell id="U2vt6CoMSIiraqyLDLpo-95" value="Contingency for incorrect contents of shopping cart (user misclicks). The exact same process applies for incorrect stored user information." style="text;html=1;align=center;verticalAlign=middle;whiteSpace=wrap;rounded=0;" vertex="1" parent="1">
          <mxGeometry x="480" y="890" width="260" height="130" as="geometry" />
        </mxCell>
      </root>
    </mxGraphModel>
  </diagram>
</mxfile>
